<svg width="90" height="93" viewBox="0 0 90 93" fill="none" xmlns="http://www.w3.org/2000/svg">
<path fill-rule="evenodd" clip-rule="evenodd" d="M45 15.5C28.4315 15.5 15 29.3792 15 46.5C15 54.6341 18.0302 62.0383 22.995 67.5713C23.1824 66.9304 23.4317 66.3009 23.7569 65.7001C24.8594 63.6632 26.2502 61.7798 27.9003 60.1143C29.5564 58.4429 31.4248 57.0402 33.44 55.932C30.3708 52.8961 28.4519 48.6531 28.4519 43.9167C28.4519 34.5573 35.9445 27.125 45 27.125C54.0555 27.125 61.5481 34.5573 61.5481 43.9167C61.5481 48.6531 59.6292 52.8961 56.56 55.932C58.5752 57.0402 60.4436 58.4429 62.0997 60.1143C63.7498 61.7798 65.1406 63.6632 66.2431 65.7001C66.5683 66.3009 66.8176 66.9304 67.005 67.5713C71.9698 62.0383 75 54.6341 75 46.5C75 29.3792 61.5685 15.5 45 15.5ZM59.7792 73.4842C59.9248 72.7102 59.9978 71.9837 60 71.3399C60.0036 70.2763 59.815 69.7006 59.6974 69.4832C58.9453 68.0937 57.9938 66.8036 56.8592 65.6586C53.7287 62.4991 49.4644 60.7083 45 60.7083C40.5356 60.7083 36.2713 62.4991 33.1408 65.6586C32.0062 66.8036 31.0547 68.0937 30.3026 69.4832C30.185 69.7005 29.9964 70.2762 30.0001 71.3399C30.0022 71.9837 30.0752 72.7102 30.2208 73.4842C34.5807 76.0402 39.6206 77.5 45 77.5C50.3794 77.5 55.4193 76.0402 59.7792 73.4842ZM45 52.9583C50.081 52.9583 54.0481 48.8246 54.0481 43.9167C54.0481 39.0087 50.081 34.875 45 34.875C39.919 34.875 35.9519 39.0087 35.9519 43.9167C35.9519 48.8246 39.919 52.9583 45 52.9583ZM7.5 46.5C7.5 25.099 24.2893 7.75 45 7.75C65.7107 7.75 82.5 25.099 82.5 46.5C82.5 60.2844 75.532 72.3843 65.0549 79.2482C59.2527 83.0495 52.3693 85.25 45 85.25C37.6307 85.25 30.7473 83.0495 24.9451 79.2482C14.468 72.3843 7.5 60.2844 7.5 46.5Z" fill="#DFDDCE"/>
</svg>
