<svg width="109" height="114" viewBox="0 0 109 114" fill="none" xmlns="http://www.w3.org/2000/svg">
<path fill-rule="evenodd" clip-rule="evenodd" d="M54.5002 19C34.4338 19 18.1668 36.0132 18.1668 57C18.1668 66.9708 21.8368 76.0469 27.8496 82.8293C28.0766 82.0437 28.3786 81.2721 28.7724 80.5356C30.1077 78.0388 31.792 75.73 33.7906 73.6885C35.7963 71.6397 38.0591 69.9202 40.4998 68.5618C36.7825 64.8404 34.4585 59.6393 34.4585 53.8333C34.4585 42.3605 43.533 33.25 54.5002 33.25C65.4673 33.25 74.5418 42.3605 74.5418 53.8333C74.5418 59.6393 72.2178 64.8404 68.5006 68.5618C70.9412 69.9202 73.2041 71.6397 75.2098 73.6885C77.2083 75.73 78.8927 78.0388 80.2279 80.5356C80.6217 81.2721 80.9237 82.0437 81.1507 82.8293C87.1635 76.0469 90.8335 66.9708 90.8335 57C90.8335 36.0132 74.5665 19 54.5002 19ZM72.3994 90.0774C72.5758 89.1287 72.6641 88.2381 72.6668 87.4489C72.6711 86.1451 72.4428 85.4394 72.3003 85.173C71.3894 83.4697 70.2371 81.8883 68.863 80.4847C65.0716 76.6118 59.9071 74.4167 54.5002 74.4167C49.0932 74.4167 43.9287 76.6118 40.1373 80.4847C38.7633 81.8883 37.6109 83.4697 36.7 85.173C36.5576 85.4394 36.3292 86.1451 36.3336 87.4489C36.3362 88.2381 36.4246 89.1287 36.6009 90.0774C41.8812 93.2106 47.9851 95 54.5002 95C61.0152 95 67.1191 93.2106 72.3994 90.0774ZM54.5002 64.9167C60.6538 64.9167 65.4585 59.8496 65.4585 53.8333C65.4585 47.8171 60.6538 42.75 54.5002 42.75C48.3465 42.75 43.5419 47.8171 43.5419 53.8333C43.5419 59.8496 48.3465 64.9167 54.5002 64.9167ZM9.0835 57C9.0835 30.7665 29.4172 9.5 54.5002 9.5C79.5831 9.5 99.9168 30.7665 99.9168 57C99.9168 73.897 91.4778 88.7292 78.7889 97.143C71.7617 101.803 63.4252 104.5 54.5002 104.5C45.5751 104.5 37.2386 101.803 30.2114 97.143C17.5225 88.7292 9.0835 73.897 9.0835 57Z" fill="#3D2F2A"/>
</svg>
