<svg width="62" height="53" viewBox="0 0 62 53" fill="none" xmlns="http://www.w3.org/2000/svg">
<path d="M55.8 5.88889H45.973L40.3 0H21.7L16.027 5.88889H6.2C4.55566 5.88889 2.97866 6.50932 1.81594 7.6137C0.653212 8.71809 0 10.2159 0 11.7778V47.1111C0 48.6729 0.653212 50.1708 1.81594 51.2752C2.97866 52.3796 4.55566 53 6.2 53H55.8C57.4443 53 59.0213 52.3796 60.1841 51.2752C61.3468 50.1708 62 48.6729 62 47.1111V11.7778C62 10.2159 61.3468 8.71809 60.1841 7.6137C59.0213 6.50932 57.4443 5.88889 55.8 5.88889ZM55.8 47.1111H6.2V11.7778H18.755L24.428 5.88889H37.572L43.245 11.7778H55.8V47.1111ZM31 14.7222C26.8891 14.7222 22.9467 16.2733 20.0398 19.0343C17.133 21.7952 15.5 25.5399 15.5 29.4444C15.5 33.349 17.133 37.0937 20.0398 39.8546C22.9467 42.6156 26.8891 44.1667 31 44.1667C35.1109 44.1667 39.0533 42.6156 41.9602 39.8546C44.867 37.0937 46.5 33.349 46.5 29.4444C46.5 25.5399 44.867 21.7952 41.9602 19.0343C39.0533 16.2733 35.1109 14.7222 31 14.7222ZM31 38.2778C28.5335 38.2778 26.168 37.3471 24.4239 35.6906C22.6798 34.034 21.7 31.7872 21.7 29.4444C21.7 27.1017 22.6798 24.8549 24.4239 23.1983C26.168 21.5418 28.5335 20.6111 31 20.6111C33.4665 20.6111 35.832 21.5418 37.5761 23.1983C39.3202 24.8549 40.3 27.1017 40.3 29.4444C40.3 31.7872 39.3202 34.034 37.5761 35.6906C35.832 37.3471 33.4665 38.2778 31 38.2778Z" fill="#DFDDCE"/>
</svg>
