<svg width="40" height="54" viewBox="0 0 40 54" fill="none" xmlns="http://www.w3.org/2000/svg">
<path d="M34.1252 12.5V40.2916C34.1252 42.8554 32.615 45.3141 29.927 47.127C27.239 48.9398 23.5933 49.9583 19.7918 49.9583C15.9904 49.9583 12.3447 48.9398 9.65663 47.127C6.96861 45.3141 5.4585 42.8554 5.4585 40.2916V10.0833C5.4585 8.48094 6.40232 6.94422 8.08233 5.81119C9.76234 4.67816 12.0409 4.04163 14.4168 4.04163C16.7927 4.04163 19.0713 4.67816 20.7513 5.81119C22.4313 6.94422 23.3752 8.48094 23.3752 10.0833V35.4583C23.3752 36.0992 22.9976 36.7139 22.3256 37.1671C21.6536 37.6203 20.7422 37.875 19.7918 37.875C18.8415 37.875 17.93 37.6203 17.258 37.1671C16.586 36.7139 16.2085 36.0992 16.2085 35.4583V12.5H10.8335V35.4583C10.8335 37.0606 11.7773 38.5974 13.4573 39.7304C15.1373 40.8634 17.4159 41.5 19.7918 41.5C22.1677 41.5 24.4463 40.8634 26.1263 39.7304C27.8063 38.5974 28.7502 37.0606 28.7502 35.4583V10.0833C28.7502 7.51953 27.24 5.06078 24.552 3.24793C21.864 1.43508 18.2183 0.416626 14.4168 0.416626C10.6154 0.416626 6.96965 1.43508 4.28163 3.24793C1.59361 5.06078 0.0834961 7.51953 0.0834961 10.0833V40.2916C0.0834961 43.8168 2.1599 47.1976 5.85593 49.6903C9.55196 52.1829 14.5649 53.5833 19.7918 53.5833C25.0188 53.5833 30.0317 52.1829 33.7277 49.6903C37.4238 47.1976 39.5002 43.8168 39.5002 40.2916V12.5H34.1252Z" fill="#DFDDCE"/>
</svg>
